<svg width="661.94375px" height="122px" xmlns="http://www.w3.org/2000/svg" viewBox="-80.97187500000001 14 661.94375 122" style="background: rgba(0, 0, 0, 0);" preserveAspectRatio="xMidYMid"><defs><filter id="editing-extrusion" x="-100%" y="-100%" width="300%" height="300%"><feFlood result="color1" flood-color="#444"></feFlood><feConvolveMatrix order="8,8" divisor="1" kernelMatrix="1 0 0 0 0 0 0 0 0 1 0 0 0 0 0 0 0 0 1 0 0 0 0 0 0 0 0 1 0 0 0 0 0 0 0 0 1 0 0 0 0 0 0 0 0 1 0 0 0 0 0 0 0 0 1 0 0 0 0 0 0 0 0 1" in="SourceAlpha" result="extrude"></feConvolveMatrix><feComposite in="color1" in2="extrude" result="comp-extrude" operator="in"></feComposite><feOffset dx="4" dy="4" in="comp-extrude" result="offset-extrude"></feOffset><feMerge><feMergeNode in="offset-extrude"></feMergeNode><feMergeNode in="SourceGraphic"></feMergeNode></feMerge></filter></defs><g filter="url(#editing-extrusion)"><g transform="translate(16.944103240966797, 97.43000221252441)"><path d="M29.18 1.28L29.18 1.28L29.18 1.28Q20.99 1.28 20.22-10.37L20.22-10.37L9.22-10.37L9.22-10.37Q7.94-7.42 7.04-4.86L7.04-4.86L5.38 0L-3.58 0L16.58-42.24L30.34-42.24L33.02-11.14L33.02-11.14Q33.66-4.42 36.22-2.43L36.22-2.43L36.22-2.43Q34.37 1.28 29.18 1.28ZM14.72-23.17L11.20-15.04L20.03-15.04L19.26-31.49L19.26-33.22L14.72-23.17ZM81.47-26.56L81.47-26.56L81.47-26.56Q81.47 0.70 51.90 0.70L51.90 0.70L51.90 0.70Q47.17 0.70 39.36-0.45L39.36-0.45L46.53-38.27L46.53-38.27Q47.04-40.83 47.36-42.30L47.36-42.30L47.36-42.30Q57.09-43.01 61.41-43.01L61.41-43.01L61.41-43.01Q65.73-43.01 69.70-42.11L69.70-42.11L69.70-42.11Q73.66-41.22 76.29-39.23L76.29-39.23L76.29-39.23Q81.47-35.33 81.47-26.56ZM68.29-28.93L68.29-28.93L68.29-28.93Q68.29-38.46 61.44-38.46L61.44-38.46L60.80-38.46L60.80-38.46Q60.48-38.46 60.16-38.40L60.16-38.40L53.57-4.03L53.57-4.03Q53.82-3.90 54.08-3.90L54.08-3.90L54.59-3.90L54.59-3.90Q56.96-3.90 59.42-5.38L59.42-5.38L59.42-5.38Q61.89-6.85 63.81-9.86L63.81-9.86L63.81-9.86Q68.29-16.83 68.29-28.93ZM86.34-39.68L86.34-39.68L86.34-39.68Q88.19-43.52 93.34-43.52L93.34-43.52L93.34-43.52Q98.50-43.52 100.90-40.54L100.90-40.54L100.90-40.54Q103.30-37.57 103.30-30.72L103.30-30.72L103.30-7.87L118.85-42.18L126.46-42.18L106.56 0L91.58 0L89.66-30.72L89.66-30.72Q89.47-34.11 88.54-36.42L88.54-36.42L88.54-36.42Q87.62-38.72 86.34-39.68ZM150.46 1.28L150.46 1.28L150.46 1.28Q142.27 1.28 141.50-10.37L141.50-10.37L130.50-10.37L130.50-10.37Q129.22-7.42 128.32-4.86L128.32-4.86L126.66 0L117.70 0L137.86-42.24L151.62-42.24L154.30-11.14L154.30-11.14Q154.94-4.42 157.50-2.43L157.50-2.43L157.50-2.43Q155.65 1.28 150.46 1.28ZM136-23.17L132.48-15.04L141.31-15.04L140.54-31.49L140.54-33.22L136-23.17ZM167.81 0L160.77 0L168.45-42.24L182.21-42.24L192.19-13.18L197.50-42.24L204.61-42.18L196.80 0L182.14 0L172.93-27.97L167.81 0ZM239.62-13.25L239.62-13.25L239.62-13.25Q241.28-12.03 241.28-9.44L241.28-9.44L241.28-9.44Q241.28-6.85 240.16-5.02L240.16-5.02L240.16-5.02Q239.04-3.20 236.86-1.79L236.86-1.79L236.86-1.79Q232.19 1.22 224.03 1.22L224.03 1.22L224.03 1.22Q215.87 1.22 211.42-3.04L211.42-3.04L211.42-3.04Q206.98-7.30 206.98-14.85L206.98-14.85L206.98-14.85Q206.98-25.54 212.54-33.66L212.54-33.66L212.54-33.66Q216.77-39.68 224.32-42.24L224.32-42.24L224.32-42.24Q228.22-43.52 232.06-43.52L232.06-43.52L232.06-43.52Q235.90-43.52 238.27-43.01L238.27-43.01L238.27-43.01Q240.64-42.50 242.43-41.47L242.43-41.47L242.43-41.47Q246.34-39.23 246.34-35.65L246.34-35.65L246.34-35.65Q246.34-32.38 243.26-29.95L243.26-29.95L243.26-29.95Q240.45-27.78 238.14-27.78L238.14-27.78L238.14-27.78Q235.84-27.78 234.88-28.10L234.88-28.10L234.88-28.10Q235.14-30.40 235.14-31.90L235.14-31.90L235.14-31.90Q235.14-33.41 235.07-34.50L235.07-34.50L235.07-34.50Q235.01-35.58 234.69-36.61L234.69-36.61L234.69-36.61Q234.05-38.98 232.10-38.98L232.10-38.98L232.10-38.98Q230.14-38.98 228.19-37.15L228.19-37.15L228.19-37.15Q226.24-35.33 224.58-32.26L224.58-32.26L224.58-32.26Q220.80-25.28 220.80-17.02L220.80-17.02L220.80-17.02Q220.80-13.06 223.04-10.78L223.04-10.78L223.04-10.78Q225.28-8.51 230.08-8.51L230.08-8.51L230.08-8.51Q233.66-8.51 237.06-10.88L237.06-10.88L237.06-10.88Q238.53-11.90 239.62-13.25ZM273.92-9.86L273.92-9.86L273.92-9.86Q275.14-8.32 275.14-5.82L275.14-5.82L275.14-5.82Q275.14-2.37 272.58-0.54L272.58-0.54L272.58-0.54Q270.02 1.28 265.98 1.28L265.98 1.28L265.98 1.28Q263.68 1.28 260.16 0.77L260.16 0.77L260.16 0.77Q253.25-0.32 251.14-0.32L251.14-0.32L251.14-0.32Q249.02-0.32 248.19-0.22L248.19-0.22L248.19-0.22Q247.36-0.13 246.02 0L246.02 0L253.89-42.24L281.47-42.24L281.47-42.24Q281.47-38.34 279.58-36.29L279.58-36.29L279.58-36.29Q277.70-34.24 273.98-34.24L273.98-34.24L273.98-34.24Q270.27-34.24 266.50-35.97L266.50-35.97L264.51-24.77L275.90-24.77L275.90-24.77Q275.90-21.38 274.24-19.49L274.24-19.49L274.24-19.49Q272.58-17.60 269.79-17.60L269.79-17.60L269.79-17.60Q267.01-17.60 265.28-18.24L265.28-18.24L265.28-18.24Q263.55-18.88 263.36-19.07L263.36-19.07L261.06-6.98L261.06-6.98Q262.59-6.78 265.47-6.78L265.47-6.78L265.47-6.78Q270.40-6.78 273.92-9.86ZM307.78-9.86L307.78-9.86L307.78-9.86Q308.99-8.32 308.99-5.34L308.99-5.34L308.99-5.34Q308.99-2.37 306.72-0.54L306.72-0.54L306.72-0.54Q304.45 1.28 300.48 1.28L300.48 1.28L300.48 1.28Q298.18 1.28 294.59 0.77L294.59 0.77L294.59 0.77Q287.55-0.32 285.54-0.32L285.54-0.32L285.54-0.32Q283.52-0.32 282.69-0.22L282.69-0.22L282.69-0.22Q281.86-0.13 280.51 0L280.51 0L288.26-42.24L302.27-42.24L295.87-7.04L295.87-7.04Q296.70-6.91 297.47-6.91L297.47-6.91L299.07-6.91L299.07-6.91Q304.45-6.91 307.78-9.86ZM313.60-15.62L313.60-15.62L313.60-15.62Q313.60-27.71 319.87-35.33L319.87-35.33L319.87-35.33Q326.53-43.58 338.11-43.58L338.11-43.58L338.11-43.58Q346.50-43.58 350.72-39.52L350.72-39.52L350.72-39.52Q354.94-35.46 354.94-26.88L354.94-26.88L354.94-26.88Q354.94-13.82 348.29-6.21L348.29-6.21L348.29-6.21Q341.70 1.28 330.62 1.28L330.62 1.28L330.62 1.28Q321.98 1.28 317.79-3.04L317.79-3.04L317.79-3.04Q313.60-7.36 313.60-15.62ZM330.43-28.86L330.43-28.86L330.43-28.86Q327.55-17.34 327.55-8.26L327.55-8.26L327.55-8.26Q327.55-6.08 328.29-4.67L328.29-4.67L328.29-4.67Q329.02-3.26 330.98-3.26L330.98-3.26L330.98-3.26Q332.93-3.26 334.14-4.19L334.14-4.19L334.14-4.19Q335.36-5.12 336.32-7.23L336.32-7.23L336.32-7.23Q337.86-10.69 339.30-18.02L339.30-18.02L339.30-18.02Q340.74-25.34 340.86-28.38L340.86-28.38L340.86-28.38Q340.99-31.42 340.99-33.73L340.99-33.73L340.99-33.73Q340.99-36.03 340.29-37.50L340.29-37.50L340.29-37.50Q339.58-38.98 337.70-38.98L337.70-38.98L337.70-38.98Q335.81-38.98 334.53-37.82L334.53-37.82L334.53-37.82Q332.16-35.65 330.43-28.86ZM391.49-13.25L391.49-13.25L391.49-13.25Q393.15-12.03 393.15-9.44L393.15-9.44L393.15-9.44Q393.15-6.85 392.03-5.02L392.03-5.02L392.03-5.02Q390.91-3.20 388.74-1.79L388.74-1.79L388.74-1.79Q384.06 1.22 375.90 1.22L375.90 1.22L375.90 1.22Q367.74 1.22 363.30-3.04L363.30-3.04L363.30-3.04Q358.85-7.30 358.85-14.85L358.85-14.85L358.85-14.85Q358.85-25.54 364.42-33.66L364.42-33.66L364.42-33.66Q368.64-39.68 376.19-42.24L376.19-42.24L376.19-42.24Q380.10-43.52 383.94-43.52L383.94-43.52L383.94-43.52Q387.78-43.52 390.14-43.01L390.14-43.01L390.14-43.01Q392.51-42.50 394.30-41.47L394.30-41.47L394.30-41.47Q398.21-39.23 398.21-35.65L398.21-35.65L398.21-35.65Q398.21-32.38 395.14-29.95L395.14-29.95L395.14-29.95Q392.32-27.78 390.02-27.78L390.02-27.78L390.02-27.78Q387.71-27.78 386.75-28.10L386.75-28.10L386.75-28.10Q387.01-30.40 387.01-31.90L387.01-31.90L387.01-31.90Q387.01-33.41 386.94-34.50L386.94-34.50L386.94-34.50Q386.88-35.58 386.56-36.61L386.56-36.61L386.56-36.61Q385.92-38.98 383.97-38.98L383.97-38.98L383.97-38.98Q382.02-38.98 380.06-37.15L380.06-37.15L380.06-37.15Q378.11-35.33 376.45-32.26L376.45-32.26L376.45-32.26Q372.67-25.28 372.67-17.02L372.67-17.02L372.67-17.02Q372.67-13.06 374.91-10.78L374.91-10.78L374.91-10.78Q377.15-8.51 381.95-8.51L381.95-8.51L381.95-8.51Q385.54-8.51 388.93-10.88L388.93-10.88L388.93-10.88Q390.40-11.90 391.49-13.25ZM426.56 1.28L426.56 1.28L426.56 1.28Q418.37 1.28 417.60-10.37L417.60-10.37L406.59-10.37L406.59-10.37Q405.31-7.42 404.42-4.86L404.42-4.86L402.75 0L393.79 0L413.95-42.24L427.71-42.24L430.40-11.14L430.40-11.14Q431.04-4.42 433.60-2.43L433.60-2.43L433.60-2.43Q431.74 1.28 426.56 1.28ZM412.10-23.17L408.58-15.04L417.41-15.04L416.64-31.49L416.64-33.22L412.10-23.17ZM464.06-9.86L464.06-9.86L464.06-9.86Q465.28-8.32 465.28-5.34L465.28-5.34L465.28-5.34Q465.28-2.37 463.01-0.54L463.01-0.54L463.01-0.54Q460.74 1.28 456.77 1.28L456.77 1.28L456.77 1.28Q454.46 1.28 450.88 0.77L450.88 0.77L450.88 0.77Q443.84-0.32 441.82-0.32L441.82-0.32L441.82-0.32Q439.81-0.32 438.98-0.22L438.98-0.22L438.98-0.22Q438.14-0.13 436.80 0L436.80 0L444.54-42.24L458.56-42.24L452.16-7.04L452.16-7.04Q452.99-6.91 453.76-6.91L453.76-6.91L455.36-6.91L455.36-6.91Q460.74-6.91 464.06-9.86Z" fill="#ccc"></path></g></g><style>text {
  font-size: 64px;
  font-family: Arial Black;
  dominant-baseline: central;
  text-anchor: middle;
}</style></svg>